<svg style="position: absolute; width: 0; height: 0; overflow: hidden;" version="1.1" xmlns="http://www.w3.org/2000/svg" xmlns:xlink="http://www.w3.org/1999/xlink">
<defs>
<symbol id="icon-behance" viewBox="0 0 37 32">
<path class="path1" d="M33 6.054h-9.125v2.214h9.125v-2.214zM28.5 13.661q-1.607 0-2.607 0.938t-1.107 2.545h7.286q-0.321-3.482-3.571-3.482zM28.786 24.107q1.125 0 2.179-0.571t1.357-1.554h3.946q-1.786 5.482-7.625 5.482-3.821 0-6.080-2.357t-2.259-6.196q0-3.714 2.33-6.17t6.009-2.455q2.464 0 4.295 1.214t2.732 3.196 0.902 4.429q0 0.304-0.036 0.839h-11.75q0 1.982 1.027 3.063t2.973 1.080zM4.946 23.214h5.286q3.661 0 3.661-2.982 0-3.214-3.554-3.214h-5.393v6.196zM4.946 13.625h5.018q1.393 0 2.205-0.652t0.813-2.027q0-2.571-3.393-2.571h-4.643v5.25zM0 4.536h10.607q1.554 0 2.768 0.25t2.259 0.848 1.607 1.723 0.563 2.75q0 3.232-3.071 4.696 2.036 0.571 3.071 2.054t1.036 3.643q0 1.339-0.438 2.438t-1.179 1.848-1.759 1.268-2.161 0.75-2.393 0.232h-10.911v-22.5z"></path>
</symbol>
<symbol id="icon-vk" viewBox="0 0 35 32">
<path class="path1" d="M34.232 9.286q0.411 1.143-2.679 5.25-0.429 0.571-1.161 1.518-1.393 1.786-1.607 2.339-0.304 0.732 0.25 1.446 0.304 0.375 1.446 1.464h0.018l0.071 0.071q2.518 2.339 3.411 3.946 0.054 0.089 0.116 0.223t0.125 0.473-0.009 0.607-0.446 0.491-1.054 0.223l-4.571 0.071q-0.429 0.089-1-0.089t-0.929-0.393l-0.357-0.214q-0.536-0.375-1.25-1.143t-1.223-1.384-1.089-1.036-1.009-0.277q-0.054 0.018-0.143 0.063t-0.304 0.259-0.384 0.527-0.304 0.929-0.116 1.384q0 0.268-0.063 0.491t-0.134 0.33l-0.071 0.089q-0.321 0.339-0.946 0.393h-2.054q-1.268 0.071-2.607-0.295t-2.348-0.946-1.839-1.179-1.259-1.027l-0.446-0.429q-0.179-0.179-0.491-0.536t-1.277-1.625-1.893-2.696-2.188-3.768-2.33-4.857q-0.107-0.286-0.107-0.482t0.054-0.286l0.071-0.107q0.268-0.339 1.018-0.339l4.893-0.036q0.214 0.036 0.411 0.116t0.286 0.152l0.089 0.054q0.286 0.196 0.429 0.571 0.357 0.893 0.821 1.848t0.732 1.455l0.286 0.518q0.518 1.071 1 1.857t0.866 1.223 0.741 0.688 0.607 0.25 0.482-0.089q0.036-0.018 0.089-0.089t0.214-0.393 0.241-0.839 0.17-1.446 0-2.232q-0.036-0.714-0.161-1.304t-0.25-0.821l-0.107-0.214q-0.446-0.607-1.518-0.768-0.232-0.036 0.089-0.429 0.304-0.339 0.679-0.536 0.946-0.464 4.268-0.429 1.464 0.018 2.411 0.232 0.357 0.089 0.598 0.241t0.366 0.429 0.188 0.571 0.063 0.813-0.018 0.982-0.045 1.259-0.027 1.473q0 0.196-0.018 0.75t-0.009 0.857 0.063 0.723 0.205 0.696 0.402 0.438q0.143 0.036 0.304 0.071t0.464-0.196 0.679-0.616 0.929-1.196 1.214-1.92q1.071-1.857 1.911-4.018 0.071-0.179 0.179-0.313t0.196-0.188l0.071-0.054 0.089-0.045t0.232-0.054 0.357-0.009l5.143-0.036q0.696-0.089 1.143 0.045t0.554 0.295z"></path>
</symbol>
<symbol id="icon-search" viewBox="0 0 30 32">
<path class="path1" d="M20.571 14.857q0-3.304-2.348-5.652t-5.652-2.348-5.652 2.348-2.348 5.652 2.348 5.652 5.652 2.348 5.652-2.348 2.348-5.652zM29.714 29.714q0 0.929-0.679 1.607t-1.607 0.679q-0.964 0-1.607-0.679l-6.125-6.107q-3.196 2.214-7.125 2.214-2.554 0-4.884-0.991t-4.018-2.679-2.679-4.018-0.991-4.884 0.991-4.884 2.679-4.018 4.018-2.679 4.884-0.991 4.884 0.991 4.018 2.679 2.679 4.018 0.991 4.884q0 3.929-2.214 7.125l6.125 6.125q0.661 0.661 0.661 1.607z"></path>
</symbol>
<symbol id="icon-close" viewBox="0 0 25 32">
<path class="path1" d="M23.179 23.607q0 0.714-0.5 1.214l-2.429 2.429q-0.5 0.5-1.214 0.5t-1.214-0.5l-5.25-5.25-5.25 5.25q-0.5 0.5-1.214 0.5t-1.214-0.5l-2.429-2.429q-0.5-0.5-0.5-1.214t0.5-1.214l5.25-5.25-5.25-5.25q-0.5-0.5-0.5-1.214t0.5-1.214l2.429-2.429q0.5-0.5 1.214-0.5t1.214 0.5l5.25 5.25 5.25-5.25q0.5-0.5 1.214-0.5t1.214 0.5l2.429 2.429q0.5 0.5 0.5 1.214t-0.5 1.214l-5.25 5.25 5.25 5.25q0.5 0.5 0.5 1.214z"></path>
</symbol>
<symbol id="icon-angle-down" viewBox="0 0 21 32">
<path class="path1" d="M19.196 13.143q0 0.232-0.179 0.411l-8.321 8.321q-0.179 0.179-0.411 0.179t-0.411-0.179l-8.321-8.321q-0.179-0.179-0.179-0.411t0.179-0.411l0.893-0.893q0.179-0.179 0.411-0.179t0.411 0.179l7.018 7.018 7.018-7.018q0.179-0.179 0.411-0.179t0.411 0.179l0.893 0.893q0.179 0.179 0.179 0.411z"></path>
</symbol>
<symbol id="icon-github" viewBox="0 0 27 32">
<path class="path1" d="M13.714 2.286q3.732 0 6.884 1.839t4.991 4.991 1.839 6.884q0 4.482-2.616 8.063t-6.759 4.955q-0.482 0.089-0.714-0.125t-0.232-0.536q0-0.054 0.009-1.366t0.009-2.402q0-1.732-0.929-2.536 1.018-0.107 1.83-0.321t1.679-0.696 1.446-1.188 0.946-1.875 0.366-2.688q0-2.125-1.411-3.679 0.661-1.625-0.143-3.643-0.5-0.161-1.446 0.196t-1.643 0.786l-0.679 0.429q-1.661-0.464-3.429-0.464t-3.429 0.464q-0.286-0.196-0.759-0.482t-1.491-0.688-1.518-0.241q-0.804 2.018-0.143 3.643-1.411 1.554-1.411 3.679 0 1.518 0.366 2.679t0.938 1.875 1.438 1.196 1.679 0.696 1.83 0.321q-0.696 0.643-0.875 1.839-0.375 0.179-0.804 0.268t-1.018 0.089-1.17-0.384-0.991-1.116q-0.339-0.571-0.866-0.929t-0.884-0.429l-0.357-0.054q-0.375 0-0.518 0.080t-0.089 0.205 0.161 0.25 0.232 0.214l0.125 0.089q0.393 0.179 0.777 0.679t0.563 0.911l0.179 0.411q0.232 0.679 0.786 1.098t1.196 0.536 1.241 0.125 0.991-0.063l0.411-0.071q0 0.679 0.009 1.58t0.009 0.973q0 0.321-0.232 0.536t-0.714 0.125q-4.143-1.375-6.759-4.955t-2.616-8.063q0-3.732 1.839-6.884t4.991-4.991 6.884-1.839zM5.196 21.982q0.054-0.125-0.125-0.214-0.179-0.054-0.232 0.036-0.054 0.125 0.125 0.214 0.161 0.107 0.232-0.036zM5.75 22.589q0.125-0.089-0.036-0.286-0.179-0.161-0.286-0.054-0.125 0.089 0.036 0.286 0.179 0.179 0.286 0.054zM6.286 23.393q0.161-0.125 0-0.339-0.143-0.232-0.304-0.107-0.161 0.089 0 0.321t0.304 0.125zM7.036 24.143q0.143-0.143-0.071-0.339-0.214-0.214-0.357-0.054-0.161 0.143 0.071 0.339 0.214 0.214 0.357 0.054zM8.054 24.589q0.054-0.196-0.232-0.286-0.268-0.071-0.339 0.125t0.232 0.268q0.268 0.107 0.339-0.107zM9.179 24.679q0-0.232-0.304-0.196-0.286 0-0.286 0.196 0 0.232 0.304 0.196 0.286 0 0.286-0.196zM10.214 24.5q-0.036-0.196-0.321-0.161-0.286 0.054-0.25 0.268t0.321 0.143 0.25-0.25z"></path>
</symbol>
<symbol id="icon-youtube" viewBox="0 0 27 32">
<path class="path1" d="M17.339 22.214v3.768q0 1.196-0.696 1.196-0.411 0-0.804-0.393v-5.375q0.393-0.393 0.804-0.393 0.696 0 0.696 1.196zM23.375 22.232v0.821h-1.607v-0.821q0-1.214 0.804-1.214t0.804 1.214zM6.125 18.339h1.911v-1.679h-5.571v1.679h1.875v10.161h1.786v-10.161zM11.268 28.5h1.589v-8.821h-1.589v6.75q-0.536 0.75-1.018 0.75-0.321 0-0.375-0.375-0.018-0.054-0.018-0.625v-6.5h-1.589v6.982q0 0.875 0.143 1.304 0.214 0.661 1.036 0.661 0.857 0 1.821-1.089v0.964zM18.929 25.857v-3.518q0-1.304-0.161-1.768-0.304-1-1.268-1-0.893 0-1.661 0.964v-3.875h-1.589v11.839h1.589v-0.857q0.804 0.982 1.661 0.982 0.964 0 1.268-0.982 0.161-0.482 0.161-1.786zM24.964 25.679v-0.232h-1.625q0 0.911-0.036 1.089-0.125 0.643-0.714 0.643-0.821 0-0.821-1.232v-1.554h3.196v-1.839q0-1.411-0.482-2.071-0.696-0.911-1.893-0.911-1.214 0-1.911 0.911-0.5 0.661-0.5 2.071v3.089q0 1.411 0.518 2.071 0.696 0.911 1.929 0.911 1.286 0 1.929-0.946 0.321-0.482 0.375-0.964 0.036-0.161 0.036-1.036zM14.107 9.375v-3.75q0-1.232-0.768-1.232t-0.768 1.232v3.75q0 1.25 0.768 1.25t0.768-1.25zM26.946 22.786q0 4.179-0.464 6.25-0.25 1.054-1.036 1.768t-1.821 0.821q-3.286 0.375-9.911 0.375t-9.911-0.375q-1.036-0.107-1.83-0.821t-1.027-1.768q-0.464-2-0.464-6.25 0-4.179 0.464-6.25 0.25-1.054 1.036-1.768t1.839-0.839q3.268-0.357 9.893-0.357t9.911 0.357q1.036 0.125 1.83 0.839t1.027 1.768q0.464 2 0.464 6.25zM9.125 0h1.821l-2.161 7.125v4.839h-1.786v-4.839q-0.25-1.321-1.089-3.786-0.661-1.839-1.161-3.339h1.893l1.268 4.696zM15.732 5.946v3.125q0 1.446-0.5 2.107-0.661 0.911-1.893 0.911-1.196 0-1.875-0.911-0.5-0.679-0.5-2.107v-3.125q0-1.429 0.5-2.089 0.679-0.911 1.875-0.911 1.232 0 1.893 0.911 0.5 0.661 0.5 2.089zM21.714 3.054v8.911h-1.625v-0.982q-0.946 1.107-1.839 1.107-0.821 0-1.054-0.661-0.143-0.429-0.143-1.339v-7.036h1.625v6.554q0 0.589 0.018 0.625 0.054 0.393 0.375 0.393 0.482 0 1.018-0.768v-6.804h1.625z"></path>
</symbol>
<symbol id="icon-instagram" viewBox="0 0 27 32">
<path class="path1" d="M18.286 16q0-1.893-1.339-3.232t-3.232-1.339-3.232 1.339-1.339 3.232 1.339 3.232 3.232 1.339 3.232-1.339 1.339-3.232zM20.75 16q0 2.929-2.054 4.982t-4.982 2.054-4.982-2.054-2.054-4.982 2.054-4.982 4.982-2.054 4.982 2.054 2.054 4.982zM22.679 8.679q0 0.679-0.482 1.161t-1.161 0.482-1.161-0.482-0.482-1.161 0.482-1.161 1.161-0.482 1.161 0.482 0.482 1.161zM13.714 4.75q-0.125 0-1.366-0.009t-1.884 0-1.723 0.054-1.839 0.179-1.277 0.33q-0.893 0.357-1.571 1.036t-1.036 1.571q-0.196 0.518-0.33 1.277t-0.179 1.839-0.054 1.723 0 1.884 0.009 1.366-0.009 1.366 0 1.884 0.054 1.723 0.179 1.839 0.33 1.277q0.357 0.893 1.036 1.571t1.571 1.036q0.518 0.196 1.277 0.33t1.839 0.179 1.723 0.054 1.884 0 1.366-0.009 1.366 0.009 1.884 0 1.723-0.054 1.839-0.179 1.277-0.33q0.893-0.357 1.571-1.036t1.036-1.571q0.196-0.518 0.33-1.277t0.179-1.839 0.054-1.723 0-1.884-0.009-1.366 0.009-1.366 0-1.884-0.054-1.723-0.179-1.839-0.33-1.277q-0.357-0.893-1.036-1.571t-1.571-1.036q-0.518-0.196-1.277-0.33t-1.839-0.179-1.723-0.054-1.884 0-1.366 0.009zM27.429 16q0 4.089-0.089 5.661-0.179 3.714-2.214 5.75t-5.75 2.214q-1.571 0.089-5.661 0.089t-5.661-0.089q-3.714-0.179-5.75-2.214t-2.214-5.75q-0.089-1.571-0.089-5.661t0.089-5.661q0.179-3.714 2.214-5.75t5.75-2.214q1.571-0.089 5.661-0.089t5.661 0.089q3.714 0.179 5.75 2.214t2.214 5.75q0.089 1.571 0.089 5.661z"></path>
</symbol>
<symbol id="icon-flickr" viewBox="0 0 27 32">
<path class="path1" d="M22.286 2.286q2.125 0 3.634 1.509t1.509 3.634v17.143q0 2.125-1.509 3.634t-3.634 1.509h-17.143q-2.125 0-3.634-1.509t-1.509-3.634v-17.143q0-2.125 1.509-3.634t3.634-1.509h17.143zM12.464 16q0-1.571-1.107-2.679t-2.679-1.107-2.679 1.107-1.107 2.679 1.107 2.679 2.679 1.107 2.679-1.107 1.107-2.679zM22.536 16q0-1.571-1.107-2.679t-2.679-1.107-2.679 1.107-1.107 2.679 1.107 2.679 2.679 1.107 2.679-1.107 1.107-2.679z"></path>
</symbol>
<symbol id="icon-lj" viewBox="0 0 304.999 304.999">
	<path id="XMLID_17_" d="M160.662,19.47c-18.934,0-37.323,3.668-54.693,10.881L76.353,0.732c-0.819-0.82-2.094-0.967-3.082-0.359
		C44.436,18.201,19.773,42.865,1.947,71.699c-0.61,0.986-0.462,2.262,0.358,3.082l28.39,28.383
		c-8.491,18.637-12.808,38.5-12.808,59.074c0,78.719,64.049,142.762,142.775,142.762c78.721,0,142.765-64.043,142.765-142.762
		C303.427,83.515,239.383,19.47,160.662,19.47z M217.225,148.664l9.943,42.082l9.543,44.395l-44.337-9.533l-42.055-9.893
		L36.712,102.111c14.252-29.338,38.339-52.619,68.114-65.832L217.225,148.664z"/>
	<path id="XMLID_20_" d="M221.76,187.396l-7.522-33.023c-25.891,11.889-46.404,32.402-58.283,58.295l33.023,7.52
		C195.989,206.165,207.747,194.41,221.76,187.396z"/>
</symbol>
<symbol id="icon-dribbble" viewBox="0 0 27 32">
<path class="path1" d="M18.286 26.786q-0.75-4.304-2.5-8.893h-0.036l-0.036 0.018q-0.286 0.107-0.768 0.295t-1.804 0.875-2.446 1.464-2.339 2.045-1.839 2.643l-0.268-0.196q3.286 2.679 7.464 2.679 2.357 0 4.571-0.929zM14.982 15.946q-0.375-0.875-0.946-1.982-5.554 1.661-12.018 1.661-0.018 0.125-0.018 0.375 0 2.214 0.786 4.223t2.214 3.598q0.893-1.589 2.205-2.973t2.545-2.223 2.33-1.446 1.777-0.857l0.661-0.232q0.071-0.018 0.232-0.063t0.232-0.080zM13.071 12.161q-2.143-3.804-4.357-6.75-2.464 1.161-4.179 3.321t-2.286 4.857q5.393 0 10.821-1.429zM25.286 17.857q-3.75-1.071-7.304-0.518 1.554 4.268 2.286 8.375 1.982-1.339 3.304-3.384t1.714-4.473zM10.911 4.625q-0.018 0-0.036 0.018 0.018-0.018 0.036-0.018zM21.446 7.214q-3.304-2.929-7.732-2.929-1.357 0-2.768 0.339 2.339 3.036 4.393 6.821 1.232-0.464 2.321-1.080t1.723-1.098 1.17-1.018 0.67-0.723zM25.429 15.875q-0.054-4.143-2.661-7.321l-0.018 0.018q-0.161 0.214-0.339 0.438t-0.777 0.795-1.268 1.080-1.786 1.161-2.348 1.152q0.446 0.946 0.786 1.696 0.036 0.107 0.116 0.313t0.134 0.295q0.643-0.089 1.33-0.125t1.313-0.036 1.232 0.027 1.143 0.071 1.009 0.098 0.857 0.116 0.652 0.107 0.446 0.080zM27.429 16q0 3.732-1.839 6.884t-4.991 4.991-6.884 1.839-6.884-1.839-4.991-4.991-1.839-6.884 1.839-6.884 4.991-4.991 6.884-1.839 6.884 1.839 4.991 4.991 1.839 6.884z"></path>
</symbol>
<symbol id="icon-wordpress" viewBox="0 0 32 32">
<path class="path1" d="M2.268 16q0-2.911 1.196-5.589l6.554 17.946q-3.5-1.696-5.625-5.018t-2.125-7.339zM25.268 15.304q0 0.339-0.045 0.688t-0.179 0.884-0.205 0.786-0.313 1.054-0.313 1.036l-1.357 4.571-4.964-14.75q0.821-0.054 1.571-0.143 0.339-0.036 0.464-0.33t-0.045-0.554-0.509-0.241l-3.661 0.179q-1.339-0.018-3.607-0.179-0.214-0.018-0.366 0.089t-0.205 0.268-0.027 0.33 0.161 0.295 0.348 0.143l1.429 0.143 2.143 5.857-3 9-5-14.857q0.821-0.054 1.571-0.143 0.339-0.036 0.464-0.33t-0.045-0.554-0.509-0.241l-3.661 0.179q-0.125 0-0.411-0.009t-0.464-0.009q1.875-2.857 4.902-4.527t6.563-1.67q2.625 0 5.009 0.946t4.259 2.661h-0.179q-0.982 0-1.643 0.723t-0.661 1.705q0 0.214 0.036 0.429t0.071 0.384 0.143 0.411 0.161 0.375 0.214 0.402 0.223 0.375 0.259 0.429 0.25 0.411q1.125 1.911 1.125 3.786zM16.232 17.196l4.232 11.554q0.018 0.107 0.089 0.196-2.25 0.786-4.554 0.786-2 0-3.875-0.571zM28.036 9.411q1.696 3.107 1.696 6.589 0 3.732-1.857 6.884t-4.982 4.973l4.196-12.107q1.054-3.018 1.054-4.929 0-0.75-0.107-1.411zM16 0q3.25 0 6.214 1.268t5.107 3.411 3.411 5.107 1.268 6.214-1.268 6.214-3.411 5.107-5.107 3.411-6.214 1.268-6.214-1.268-5.107-3.411-3.411-5.107-1.268-6.214 1.268-6.214 3.411-5.107 5.107-3.411 6.214-1.268zM16 31.268q3.089 0 5.92-1.214t4.875-3.259 3.259-4.875 1.214-5.92-1.214-5.92-3.259-4.875-4.875-3.259-5.92-1.214-5.92 1.214-4.875 3.259-3.259 4.875-1.214 5.92 1.214 5.92 3.259 4.875 4.875 3.259 5.92 1.214z"></path>
</symbol>
<symbol id="icon-arrow-left" viewBox="0 0 43 32">
<path class="path1" d="M42.311 14.044c-0.178-0.178-0.533-0.356-0.711-0.356h-33.778l10.311-10.489c0.178-0.178 0.356-0.533 0.356-0.711 0-0.356-0.178-0.533-0.356-0.711l-1.6-1.422c-0.356-0.178-0.533-0.356-0.889-0.356s-0.533 0.178-0.711 0.356l-14.578 14.933c-0.178 0.178-0.356 0.533-0.356 0.711s0.178 0.533 0.356 0.711l14.756 14.933c0 0.178 0.356 0.356 0.533 0.356s0.533-0.178 0.711-0.356l1.6-1.6c0.178-0.178 0.356-0.533 0.356-0.711s-0.178-0.533-0.356-0.711l-10.311-10.489h33.778c0.178 0 0.533-0.178 0.711-0.356 0.356-0.178 0.533-0.356 0.533-0.711v-2.133c0-0.356-0.178-0.711-0.356-0.889z"></path>
</symbol>
<symbol id="icon-arrow-right" viewBox="0 0 43 32">
<path class="path1" d="M0.356 17.956c0.178 0.178 0.533 0.356 0.711 0.356h33.778l-10.311 10.489c-0.178 0.178-0.356 0.533-0.356 0.711 0 0.356 0.178 0.533 0.356 0.711l1.6 1.6c0.178 0.178 0.533 0.356 0.711 0.356s0.533-0.178 0.711-0.356l14.756-14.933c0.178-0.356 0.356-0.711 0.356-0.889s-0.178-0.533-0.356-0.711l-14.756-14.933c0-0.178-0.356-0.356-0.533-0.356s-0.533 0.178-0.711 0.356l-1.6 1.6c-0.178 0.178-0.356 0.533-0.356 0.711s0.178 0.533 0.356 0.711l10.311 10.489h-33.778c-0.178 0-0.533 0.178-0.711 0.356-0.356 0.178-0.533 0.356-0.533 0.711v2.311c0 0.178 0.178 0.533 0.356 0.711z"></path>
</symbol>
<symbol id="icon-arrow-left-bold" viewBox="0 0 352 274">
<path d="M109.3 9.4L9 114.4c-6 5.8-9 13.7-9 22.4s3 16.5 9 22.4l100.3 105.4c11.9 12.5 31.3 12.5 43.2 0 11.9-12.5 11.9-32.7 0-45.2L104.4 169h217c16.9 0 30.6-14.3 30.6-32s-13.7-32-30.6-32h-217l48.2-50.4c11.9-12.5 11.9-32.7 0-45.2-12-12.5-31.3-12.5-43.3 0z" id="Shape"></path>
</symbol>
<symbol id="icon-arrow-right-bold" viewBox="0 0 352 274">
<path d="M242.7 9.4l100.3 105c6 5.8 9 13.7 9 22.4s-3 16.5-9 22.4L242.7 264.6c-11.9 12.5-31.3 12.5-43.2 0-11.9-12.5-11.9-32.7 0-45.2l48.2-50.4h-217C13.7 169 0 154.7 0 137s13.7-32 30.6-32h217l-48.2-50.4c-11.9-12.5-11.9-32.7 0-45.2 12-12.5 31.3-12.5 43.3 0z" id="Shape"></path>
</symbol>
<symbol id="icon-arrow-left-simple" viewBox="0 0 512.006 512.006">
	<path d="M388.419,475.59L168.834,256.005L388.418,36.421c8.341-8.341,8.341-21.824,0-30.165s-21.824-8.341-30.165,0
		L123.586,240.923c-8.341,8.341-8.341,21.824,0,30.165l234.667,234.667c4.16,4.16,9.621,6.251,15.083,6.251
		c5.461,0,10.923-2.091,15.083-6.251C396.76,497.414,396.76,483.931,388.419,475.59z"/>
</symbol>
<symbol id="icon-arrow-right-simple" viewBox="0 0 512.005 512.005">
	<path d="M388.418,240.923L153.751,6.256c-8.341-8.341-21.824-8.341-30.165,0s-8.341,21.824,0,30.165L343.17,256.005
		L123.586,475.589c-8.341,8.341-8.341,21.824,0,30.165c4.16,4.16,9.621,6.251,15.083,6.251c5.461,0,10.923-2.091,15.083-6.251
		l234.667-234.667C396.759,262.747,396.759,249.264,388.418,240.923z"/>
</symbol>
<symbol id="icon-arrow-long-left" viewBox="0 0 20 20">
<path d="M0.75 10l5.25-5.5v3.5h13v4h-13v3.5l-5.25-5.5z"></path>
</symbol>
<symbol id="icon-arrow-long-right" viewBox="0 0 20 20">
<path d="M14 15.5v-3.5h-13v-4h13v-3.5l5.25 5.5-5.25 5.5z"></path>
</symbol>
<symbol id="icon-menu-button-1" viewBox="0 0 512 512">
<g>
	<g>
		<g>
			<path d="M53.333,106.667H416c29.417,0,53.333-23.927,53.333-53.333S445.417,0,416,0H53.333C23.917,0,0,23.927,0,53.333
				S23.917,106.667,53.333,106.667z"/>
			<path d="M416,181.333H53.333C23.917,181.333,0,205.26,0,234.667S23.917,288,53.333,288H416c29.417,0,53.333-23.927,53.333-53.333
				S445.417,181.333,416,181.333z"/>
			<path d="M416,362.667H53.333C23.917,362.667,0,386.594,0,416s23.917,53.333,53.333,53.333H416
				c29.417,0,53.333-23.927,53.333-53.333S445.417,362.667,416,362.667z"/>
		</g>
	</g>
</g>
</symbol>
<symbol id="icon-menu-button-2" viewBox="0 0 512 512">
	<path d="m362.667969 0h-341.335938c-11.753906 0-21.332031 9.578125-21.332031 21.332031v42.667969c0 11.753906 9.578125 21.332031 21.332031 21.332031h341.335938c11.753906 0 21.332031-9.578125 21.332031-21.332031v-42.667969c0-11.753906-9.578125-21.332031-21.332031-21.332031zm0 0"/><path d="m362.667969 128h-341.335938c-11.753906 0-21.332031 9.578125-21.332031 21.332031v42.667969c0 11.753906 9.578125 21.332031 21.332031 21.332031h341.335938c11.753906 0 21.332031-9.578125 21.332031-21.332031v-42.667969c0-11.753906-9.578125-21.332031-21.332031-21.332031zm0 0"/><path d="m362.667969 256h-341.335938c-11.753906 0-21.332031 9.578125-21.332031 21.332031v42.667969c0 11.753906 9.578125 21.332031 21.332031 21.332031h341.335938c11.753906 0 21.332031-9.578125 21.332031-21.332031v-42.667969c0-11.753906-9.578125-21.332031-21.332031-21.332031zm0 0"/>
</symbol>
<symbol id="icon-edit" viewBox="0 0 490.337 490.337">
	<path d="M229.9,145.379l-47.5,47.5c-17.5,17.5-35.1,35-52.5,52.7c-4.1,4.2-7.2,9.8-8.4,15.3c-6.3,28.9-12.4,57.8-18.5,86.7
		l-3.4,16c-1.6,7.8,0.5,15.6,5.8,20.9c4.1,4.1,9.8,6.4,15.8,6.4c1.7,0,3.4-0.2,5.1-0.5l17.6-3.7c28-5.9,56.1-11.9,84.1-17.7
		c6.5-1.4,12-4.3,16.7-9c78.6-78.7,157.2-157.3,235.8-235.8c5.8-5.8,9-12.7,9.8-21.2c0.1-1.4,0-2.8-0.3-4.1c-0.5-2-0.9-4.1-1.4-6.1
		c-1.1-5.1-2.3-10.9-4.7-16.5l0,0c-14.7-33.6-39.1-57.6-72.5-71.1c-6.7-2.7-13.8-3.6-20-4.4l-1.7-0.2c-9-1.1-17.2,1.9-24.3,9.1
		C320.4,54.879,275.1,100.179,229.9,145.379z M386.4,24.679c0.2,0,0.3,0,0.5,0l1.7,0.2c5.2,0.6,10,1.2,13.8,2.8
		c27.2,11,47.2,30.6,59.3,58.2c1.4,3.2,2.3,7.3,3.2,11.6c0.3,1.6,0.7,3.2,1,4.8c-0.4,1.8-1.1,3-2.5,4.3
		c-78.7,78.5-157.3,157.2-235.9,235.8c-1.3,1.3-2.5,1.9-4.3,2.3c-28.1,5.9-56.1,11.8-84.2,17.7l-14.8,3.1l2.8-13.1
		c6.1-28.8,12.2-57.7,18.4-86.5c0.2-0.9,1-2.3,1.9-3.3c17.4-17.6,34.8-35.1,52.3-52.5l47.5-47.5c45.3-45.3,90.6-90.6,135.8-136
		C384.8,24.979,385.7,24.679,386.4,24.679z"/>
	<path d="M38.9,109.379h174.6c6.8,0,12.3-5.5,12.3-12.3s-5.5-12.3-12.3-12.3H38.9c-21.5,0-38.9,17.5-38.9,38.9v327.4
		c0,21.5,17.5,38.9,38.9,38.9h327.3c21.5,0,38.9-17.5,38.9-38.9v-167.5c0-6.8-5.5-12.3-12.3-12.3s-12.3,5.5-12.3,12.3v167.5
		c0,7.9-6.5,14.4-14.4,14.4H38.9c-7.9,0-14.4-6.5-14.4-14.4v-327.3C24.5,115.879,31,109.379,38.9,109.379z"/>
</symbol>
<symbol id="icon-camera-dslr" viewBox="0 0 510.338 510.338">
	<g>
		<path d="M246.825,97.303c-4.142,0-7.5,3.358-7.5,7.5s3.358,7.5,7.5,7.5h116.312c4.143,0,7.5-3.358,7.5-7.5s-3.357-7.5-7.5-7.5   H246.825z"/>
		<path d="M510.338,196.338c-0.866-23.259-16.279-43.535-37.979-51.837c-13.372-7.415-24.87-17.327-34.183-29.464   c-2.521-3.286-7.229-3.907-10.516-1.385c-3.286,2.521-3.906,7.229-1.385,10.516c10.594,13.809,23.681,25.079,38.902,33.503   c0.424,0.264,0.88,0.489,1.364,0.668c16.32,6.038,27.284,21.172,27.931,38.557l0.58,15.551h-71.079   c-26.333-43.225-73.914-72.148-128.124-72.148c-54.21,0-101.791,28.923-128.124,72.148H18.335l12.67-33.678   c3.895-10.352,12.187-18.178,22.749-21.471c0.159-0.05,0.316-0.105,0.47-0.164l106.954-29.857   c22.128-6.177,40.134-21.776,49.4-42.798c9.009-20.437,29.262-33.642,51.596-33.642h91.246c22.575,0,42.915,13.405,51.816,34.151   l5.233,12.198c1.633,3.806,6.043,5.569,9.85,3.935c3.807-1.633,5.568-6.044,3.936-9.85l-5.233-12.197   c-11.271-26.265-37.021-43.236-65.602-43.236h-91.246c-28.276,0-53.916,16.718-65.322,42.592   c-5.123,11.621-13.569,21.181-24.13,27.633l-1.627-5.786c-3.668-13.044-17.266-20.674-30.311-17.004l-37.044,10.417   C90.697,97.357,83.069,110.955,86.737,124l2.213,7.867l-39.571,11.046c-0.349,0.097-0.686,0.218-1.01,0.361   c-14.567,4.841-25.982,15.805-31.402,30.212L0.481,217.306C0.166,218.14,0,219.056,0,219.947v162.696c0,4.142,3.358,7.5,7.5,7.5   c4.142,0,7.5-3.358,7.5-7.5V227.447h80.123v232.054H37.5c-12.407,0-22.5-10.093-22.5-22.5v-24.358c0-4.142-3.358-7.5-7.5-7.5   c-4.142,0-7.5,3.358-7.5,7.5v24.358c0,20.678,16.822,37.5,37.5,37.5h435.338c20.678,0,37.5-16.822,37.5-37.5V196.338z    M101.177,119.939c-0.692-2.462-0.385-5.046,0.867-7.277c1.251-2.23,3.296-3.84,5.758-4.533l37.044-10.417   c5.084-1.431,10.382,1.543,11.811,6.625l2.237,7.953c-0.582,0.181-1.158,0.376-1.748,0.541l-53.748,15.004L101.177,119.939z    M442.861,260.81c14.233,2.217,25.16,14.556,25.16,29.402c0,14.845-10.928,27.185-25.16,29.401   c1.899-9.511,2.903-19.341,2.903-29.401C445.764,280.151,444.76,270.321,442.861,260.81z M295.851,155.298   c74.392,0,134.913,60.522,134.913,134.913s-60.521,134.913-134.913,134.913c-74.391,0-134.913-60.522-134.913-134.913   S221.459,155.298,295.851,155.298z M472.838,459.501H110.123V227.447h49.605c-8.844,19.104-13.79,40.366-13.79,62.765   c0,82.663,67.25,149.913,149.913,149.913c67.085,0,124.018-44.294,143.094-105.173c24.366-0.367,44.077-20.289,44.077-44.74   c0-24.452-19.711-44.374-44.077-44.741c-1.94-6.19-4.277-12.206-6.971-18.024h63.365v209.554   C495.338,449.408,485.244,459.501,472.838,459.501z"/>
		<path d="M295.851,407.836c64.858,0,117.625-52.767,117.625-117.625s-52.767-117.625-117.625-117.625   c-20.543,0-40.767,5.377-58.486,15.55c-3.592,2.063-4.832,6.646-2.77,10.239c2.063,3.592,6.646,4.833,10.239,2.77   c15.45-8.87,33.092-13.559,51.018-13.559c56.588,0,102.625,46.038,102.625,102.625s-46.037,102.625-102.625,102.625   c-56.587,0-102.625-46.038-102.625-102.625c0-27.412,10.675-53.184,30.058-72.567c2.929-2.929,2.929-7.678,0-10.607   c-2.929-2.929-7.678-2.929-10.606,0c-22.216,22.216-34.452,51.754-34.452,83.173C178.225,355.07,230.992,407.836,295.851,407.836z"/>
		<path d="M354.966,290.211c0-32.596-26.519-59.115-59.115-59.115c-32.597,0-59.115,26.519-59.115,59.115   s26.519,59.115,59.115,59.115C328.447,349.327,354.966,322.808,354.966,290.211z M251.735,290.211   c0-24.325,19.79-44.115,44.115-44.115c24.325,0,44.115,19.79,44.115,44.115c0,24.325-19.79,44.115-44.115,44.115   C271.525,334.327,251.735,314.537,251.735,290.211z"/>
		<path d="M60.987,181.466c0,13.547,11.022,24.568,24.568,24.568c13.547,0,24.568-11.021,24.568-24.568   c0-13.547-11.021-24.568-24.568-24.568C72.008,156.898,60.987,167.919,60.987,181.466z M95.123,181.466   c0,5.276-4.292,9.568-9.568,9.568c-5.276,0-9.568-4.293-9.568-9.568c0-5.276,4.292-9.568,9.568-9.568   C90.831,171.898,95.123,176.19,95.123,181.466z"/>
	</g>
</symbol>
<symbol id="icon-camera-aperture" viewBox="0 0 512 512">
	<path d="m289.257812 2.410156c-.722656-.148437-1.40625-.277344-2.109374-.320312-10.242188-1.257813-20.589844-2.089844-31.148438-2.089844-141.164062 0-256 114.835938-256 256s114.835938 256 256 256 256-114.835938 256-256c0-129.855469-97.28125-237.207031-222.742188-253.589844zm162.261719 144.597656h-221.480469l64.359376-111.464843c67.523437 11.730469 124.757812 53.652343 157.121093 111.464843zm-151.082031 185.898438h-88.875l-44.4375-76.949219 44.4375-76.949219h88.875l44.4375 76.949219zm-44.4375-300.90625c1.152344 0 2.261719.148438 3.390625.171875l-110.71875 191.785156-64.40625-111.507812c41.132813-49.109375 102.828125-80.449219 171.734375-80.449219zm-192.019531 109.269531 110.652343 191.636719h-128.746093c-8.832031-24.019531-13.886719-49.855469-13.886719-76.90625 0-41.960938 11.820312-81.128906 31.980469-114.730469zm-3.542969 223.636719h221.523438l-64.402344 111.550781c-67.542969-11.753906-124.78125-53.695312-157.121094-111.550781zm195.5625 115.09375c-1.152344 0-2.28125-.148438-3.433594-.171875l110.761719-191.871094 64.425781 111.574219c-41.128906 49.128906-102.824218 80.46875-171.753906 80.46875zm192.042969-109.3125-110.675781-191.679688h128.703124c8.851563 24.042969 13.929688 49.921876 13.929688 76.992188 0 41.941406-11.796875 81.089844-31.957031 114.6875zm0 0"/>
</symbol>
<symbol id="icon-camera-focus" viewBox="0 0 512 512">
	<path d="M509,476.09c-1.25-.58-31.1-16.3-31.1-16.3-5.3-2.8-9.7-5.2-9.9-5.3a77.57,77.57,0,0,1,3.3-7.9c4.4-9.7,15.57-40.82,17.6-47.1,3.21-9.92,4-13.7,5.31-18.09,1.84-6.31,3.37-11.64,5.09-20.11,2.72-13.46,7.9-42.6,9.5-61.8.7-7.7,1.7-23.27,2.2-31.36.8-16.12-.7-41.54-2.6-59.14,0,0-4.82-34.16-5-35.8-1.1-7.4-5.4-26.6-8.8-38.9l-2.87-10.73c-.69-1.59-4.78-15.75-5.43-17.87-.1-.1-2.8-7.1-5.9-15.5s-7.3-18.8-9.2-22.9a67.42,67.42,0,0,1-3.2-7.8c.2-.2,9.7-5.1,21.2-11.1s21-11.4,21.3-12-1.2-4.4-3.2-8.4c0,0-14.4-27-15-27S.85,256.69.85,257.09s4.8,3.3,10.8,6.3,15.3,7.9,20.9,10.8c0,0,37.55,19.55,47.9,24.9,0,0,57.6,30.1,65.7,34.4l51.7,26.7c12.1,6.2,41,21.4,41,21.4,18,9.23,66.9,34.81,78.3,40.7l58.3,30.5,105.8,55.1c5.3,2.8,10.2,5.1,10.9,5.1s5.4-8.1,10.4-17.9l9.3-17.9Zm-227.8-315.4c-5.4,17.5-11.66,51.34-13.56,70.54.06-2.36-1,15.13-1,22.42.31,7.85.31,14,.6,19.55.7,13.9,2.7,32.4,4.5,42l.8,4.8L279,356.38,250.65,341l-80.1-41.3c-11.6-6-59.3-30.9-59.3-30.9-11.8-6.1-21.4-11.4-21.4-11.8s192.6-100.9,192.7-101S281.95,158.09,281.25,160.69ZM358.69,313.1A153,153,0,0,1,348.55,344c-6.06,13.22-16.89,30.54-16.89,30.54l-7-19.25-3.1-9.6a331.83,331.83,0,0,1-9.3-37.6s-1.73-10-2.31-14.86-1.26-16.34-1.59-22.75c-.37-7.25.23-44.07,1.34-52.05,1.36-9.75,3.18-20.95,5.73-32.43,2-9.21,14.09-42.87,18.93-52.71l1.6-3.1,1.8,3.6c1,2,3.2,7,4.9,11.2s9.1,26.8,9.1,27.3c.4.4,2.2,6.2,3.8,12.8,3.1,12.5,8.15,43.17,8.8,52.53C366.84,273.11,364.17,288.52,358.69,313.1Zm72.25,118.59-2.7,2.1-22.1-11.4-33.36-17.28s6.46-16.32,9.16-23.12c8.5-21,17.35-58.25,19.3-70.7s3.11-28.52,3.9-43.1A302.47,302.47,0,0,0,403,218c-2.22-16.63-4.57-27.31-7.3-39.7a187.52,187.52,0,0,0-7.5-26.3c-6.18-17.07-16.4-40.3-16.4-41.5,0-.8,57.41-32,59.31-32.2.22-.07,7,16.1,9.09,21.4,5,12.7,19.6,64.4,21,71.3,2.4,11.8,4.58,18.82,6.6,42.1s1.8,39.9,1.8,39.9c.2,9.6-.56,24.29-.9,34.7a239.35,239.35,0,0,1-6.1,48.5C454.85,370.45,438.25,425.89,430.95,431.69Z"/>
</symbol>
<symbol id="icon-camera-iso-1" viewBox="0 -64 512 512">
	<path d="m453.332031 0h-394.664062c-32.363281 0-58.667969 26.304688-58.667969 58.667969v266.664062c0 32.363281 26.304688 58.667969 58.667969 58.667969h394.664062c32.363281 0 58.667969-26.304688 58.667969-58.667969v-266.664062c0-32.363281-26.304688-58.667969-58.667969-58.667969zm26.667969 325.332031c0 14.699219-11.96875 26.667969-26.667969 26.667969h-394.664062c-14.699219 0-26.667969-11.96875-26.667969-26.667969v-266.664062c0-14.699219 11.96875-26.667969 26.667969-26.667969h394.664062c14.699219 0 26.667969 11.96875 26.667969 26.667969zm0 0"/><path d="m389.332031 106.667969h-32c-20.585937 0-37.332031 16.746093-37.332031 37.332031v96c0 20.585938 16.746094 37.332031 37.332031 37.332031h32c20.589844 0 37.335938-16.746093 37.335938-37.332031v-96c0-20.585938-16.746094-37.332031-37.335938-37.332031zm5.335938 133.332031c0 2.945312-2.390625 5.332031-5.335938 5.332031h-32c-2.941406 0-5.332031-2.386719-5.332031-5.332031v-96c0-2.945312 2.390625-5.332031 5.332031-5.332031h32c2.945313 0 5.335938 2.386719 5.335938 5.332031zm0 0"/><path d="m117.332031 106.667969c-8.832031 0-16 7.167969-16 16v138.664062c0 8.832031 7.167969 16 16 16s16-7.167969 16-16v-138.664062c0-8.832031-7.167969-16-16-16zm0 0"/><path d="m224 138.667969h37.332031c8.832031 0 16-7.167969 16-16s-7.167969-16-16-16h-37.332031c-29.398438 0-53.332031 23.914062-53.332031 53.332031 0 28.265625 21.929687 48 53.332031 48 4.992188 0 21.332031 1.152344 21.332031 16 0 11.777344-9.578125 21.332031-21.332031 21.332031h-37.332031c-8.832031 0-16 7.167969-16 16s7.167969 16 16 16h37.332031c29.398438 0 53.332031-23.914062 53.332031-53.332031 0-28.265625-21.929687-48-53.332031-48-4.992188 0-21.332031-1.152344-21.332031-16 0-11.777344 9.578125-21.332031 21.332031-21.332031zm0 0"/>
</symbol>
<symbol id="icon-camera-lens-1" viewBox="0 0 64 64">
	<path d="m27 44.004h10c.553 0 1-.447 1-1v-3c0-.553-.447-1-1-1h-10c-.553 0-1 .447-1 1v3c0 .553.447 1 1 1zm1-3h4.003 3.997v1h-2.997c0-.553-.447-1-1-1s-1 .447-1 1h-3.003z"/><path d="m54.999 4.998c0-.553-.447-1-1-1-.007 0-.013.004-.02.004-1.443.006-2.733.635-3.644 1.621-1.338-3.293-4.567-5.623-8.336-5.623h-19.998c-3.769 0-6.998 2.33-8.337 5.623-.91-.986-2.2-1.615-3.644-1.621-.007 0-.013-.004-.02-.004-.553 0-1 .447-1 1v15.002.002s0 .001 0 .002c0 .108.03.207.062.305.008.024.005.051.015.074.053.129.132.242.229.338l3.694 3.695v9.586.001.001c0 .038.018.071.021.108.011.093.02.188.056.273.052.125.128.237.223.33l2.701 2.71v8.578 4.997 2.002c0 .022.012.041.013.063.005.069.022.136.042.205.018.063.034.122.063.179.011.022.011.046.023.067l2.858 4.761v2.721c0 1.655 1.347 3.002 3.001 3.002h20c.007 0 .013-.004.02-.004 1.646-.011 2.98-1.351 2.98-2.998v-2.721l2.86-4.767c.016-.026.016-.056.029-.082.021-.043.032-.087.047-.133.027-.085.048-.168.052-.256.001-.016.009-.028.009-.044v-1.995-4.967c0-.011.006-.019.006-.029v-8.602l2.695-2.687c.095-.093.171-.204.223-.329.03-.072.033-.151.046-.229.009-.053.031-.1.031-.154v-.001-.001-9.585l3.7-3.701c.095-.093.171-.204.223-.33.03-.072.034-.153.047-.231.008-.051.03-.097.03-.15v-.001-.001zm-41.998 4.002c0 .553.447 1 1 1s1-.447 1-1c0-3.859 3.141-7 7-7h19.998c3.859 0 7 3.141 7 7 0 .553.447 1 1 1h.001c.553 0 1-.447 1-1 0-1.302.838-2.401 1.999-2.815v12.819h-41.998v-12.819c1.161.414 2 1.513 2 2.815zm30.434 48h-22.869l-2.564-4.273v-.727h27.996v.729zm-19.435 2h1v3h-1zm3 0h1v3h-1zm3 0h1v3h-1zm3 0h1v3h-1zm3 0h1v3h-1zm3 0h1v3h-1zm9.999-32.998h-33.998v-.998l33.998-.002zm-3.998 7.002v-5.002h1v5.002zm-3 0v-5.002h1v5.002zm-3 0v-5.002h1v5.002zm-3 0v-5.002h1v5.002zm-3 0v-5.002h1v5.002zm-3 0v-5.002h1v5.002zm-3 0v-5.002h1v5.002zm-3 0v-5.002h1v5.002zm-3 0v-5.002h1v5.002zm-3 0v-5.002h1v5.002zm-3 0v-5.002h1v5.002zm31.003 11.998-28.002.002v-6.992h28.002zm-.006 4.998h-.998v-2.996h.998zm-3.998 0v-2.996h1v2.996zm-3 0v-2.996h1v2.996zm-3 0v-2.996h1v2.996zm-3 0v-2.996h1v2.996zm-3 0v-2.996h1v2.996zm-3 0v-2.996h1v2.996zm-3 0v-2.996h1v2.996zm-3 0v-2.996h1v2.996zm-2.998 0v-2.996h.998v2.996zm28.564-13.988h-29.15l-1.005-1.008h31.166zm1.435-3.008v-5.002h.998v5.002zm1.585-10.002h-35.171l-1.997-1.998h39.166zm-28.586 35.998h1v3c-.551-.001-1-.449-1-1.002zm21.001 2.998-.001-2.998h1.001v1.998c0 .552-.448 1-1 1z"/>
</symbol>
<symbol id="icon-camera-timer-2" viewBox="0 0 238.18 274.01">
	<path d="M119.05,35.81c65.43,0,119,53.41,119.13,119S184.39,274.19,119,274,0,220.24,0,154.84,53.59,35.85,119.05,35.81ZM226.53,155.12a107.44,107.44,0,1,0-214.88-.64h0c-.38,59.24,47.64,107.59,107.12,107.85C178.09,262.6,226.32,214.61,226.53,155.12Z"/><path d="M119,18.53H101c-4.39,0-6.78-2.14-6.77-5.74S96.63,7.13,101,7.11q18-.06,35.93,0c4.42,0,6.86,2,7,5.57s-2.38,5.83-7,5.87C131,18.57,125,18.53,119,18.53Z"/><path d="M221.14,59.69c-2-1.25-3.69-1.92-4.88-3.06-4.23-4-8.35-8.21-12.42-12.41-2.83-2.92-2.91-6.12-.41-8.57,2.32-2.28,5.69-2.27,8.35.28,4.4,4.23,8.88,8.42,12.85,13a7.88,7.88,0,0,1,1.27,6.38C225.39,57,223,58.15,221.14,59.69Z"/><path d="M114.81,167.72c-10-2.9-15.33-11.6-13.65-20.19a17,17,0,0,1,18.92-13.89,5.13,5.13,0,0,0,5.31-2.12c10.05-12.24,20.21-24.4,30.34-36.59.64-.77,1.24-1.57,1.91-2.3,2.75-3,6-3.44,8.58-1.15s2.72,5.49.14,8.67c-5.19,6.39-10.49,12.7-15.75,19S140,132,134.49,138.36a4.19,4.19,0,0,0-.73,5.25c3,6.63,2.08,13-2.72,18.49A16.34,16.34,0,0,1,114.81,167.72ZM112.68,149a5.72,5.72,0,1,0,7.18-3.76,5.77,5.77,0,0,0-7.18,3.76Z"/><path class="cls-1" d="M118.52,144.56a5.72,5.72,0,1,1-5.79,5.65v0A5.82,5.82,0,0,1,118.52,144.56Z"/>
</symbol>
<symbol id="icon-dropdown-cicle" viewBox="-480.5 272.5 21 21">
	<path d="M-463 284.6c.9 0 1.6-.7 1.6-1.6s-.7-1.6-1.6-1.6-1.6.7-1.6 1.6.7 1.6 1.6 1.6zm0 .9c-1.4 0-2.5-1.1-2.5-2.5s1.1-2.5 2.5-2.5 2.5 1.1 2.5 2.5-1.1 2.5-2.5 2.5zm-7-.9c.9 0 1.6-.7 1.6-1.6s-.7-1.6-1.6-1.6-1.6.7-1.6 1.6.7 1.6 1.6 1.6zm0 .9c-1.4 0-2.5-1.1-2.5-2.5s1.1-2.5 2.5-2.5 2.5 1.1 2.5 2.5-1.1 2.5-2.5 2.5zm-7-.9c.9 0 1.6-.7 1.6-1.6s-.7-1.6-1.6-1.6-1.6.7-1.6 1.6.7 1.6 1.6 1.6zm0 .9c-1.4 0-2.5-1.1-2.5-2.5s1.1-2.5 2.5-2.5 2.5 1.1 2.5 2.5-1.1 2.5-2.5 2.5z"></path>
</symbol>
<symbol id="icon-tag" viewBox="0 0 18 18">
<path fill="" d="M15.4496399,8.42490555 L8.66109799,1.63636364 L1.63636364,1.63636364 L1.63636364,8.66081885 L8.42522727,15.44178 C8.57869221,15.5954158 8.78693789,15.6817418 9.00409091,15.6817418 C9.22124393,15.6817418 9.42948961,15.5954158 9.58327627,15.4414581 L15.4486339,9.57610048 C15.7651495,9.25692435 15.7649133,8.74206554 15.4496399,8.42490555 Z M16.6084423,10.7304545 L10.7406818,16.59822 C10.280287,17.0591273 9.65554997,17.3181054 9.00409091,17.3181054 C8.35263185,17.3181054 7.72789481,17.0591273 7.26815877,16.5988788 L0.239976954,9.57887876 C0.0863319284,9.4254126 0,9.21716044 0,9 L0,0.818181818 C0,0.366312477 0.366312477,0 0.818181818,0 L9,0 C9.21699531,0 9.42510306,0.0862010512 9.57854191,0.239639906 L16.6084423,7.26954545 C17.5601275,8.22691012 17.5601275,9.77308988 16.6084423,10.7304545 Z M5,6 C4.44771525,6 4,5.55228475 4,5 C4,4.44771525 4.44771525,4 5,4 C5.55228475,4 6,4.44771525 6,5 C6,5.55228475 5.55228475,6 5,6 Z"></path>
</symbol>
<symbol id="icon-spinner" viewBox="0 0 32 32">
	<path d="M16,5.2c5.9,0,10.8,4.8,10.8,10.8S21.9,26.8,16,26.8S5.2,21.9,5.2,16H0c0,8.8,7.2,16,16,16s16-7.2,16-16S24.8,0,16,0V5.2z"
		/>
</symbol>
<symbol id="icon-equalizer" viewBox="0 0 477.867 477.867">
<g>
	<g>
		<path d="M460.8,221.867H185.31c-9.255-36.364-46.237-58.34-82.602-49.085c-24.116,6.138-42.947,24.969-49.085,49.085H17.067
			C7.641,221.867,0,229.508,0,238.934S7.641,256,17.067,256h36.557c9.255,36.364,46.237,58.34,82.602,49.085
			c24.116-6.138,42.947-24.969,49.085-49.085H460.8c9.426,0,17.067-7.641,17.067-17.067S470.226,221.867,460.8,221.867z
			 M119.467,273.067c-18.851,0-34.133-15.282-34.133-34.133c0-18.851,15.282-34.133,34.133-34.133s34.133,15.282,34.133,34.133
			C153.6,257.785,138.318,273.067,119.467,273.067z"/>
	</g>
</g>
<g>
	<g>
		<path d="M460.8,51.2h-53.623c-9.255-36.364-46.237-58.34-82.602-49.085C300.459,8.253,281.628,27.084,275.49,51.2H17.067
			C7.641,51.2,0,58.841,0,68.267s7.641,17.067,17.067,17.067H275.49c9.255,36.364,46.237,58.34,82.602,49.085
			c24.116-6.138,42.947-24.969,49.085-49.085H460.8c9.426,0,17.067-7.641,17.067-17.067S470.226,51.2,460.8,51.2z M341.334,102.4
			c-18.851,0-34.133-15.282-34.133-34.133s15.282-34.133,34.133-34.133s34.133,15.282,34.133,34.133S360.185,102.4,341.334,102.4z"
			/>
	</g>
</g>
<g>
	<g>
		<path d="M460.8,392.534h-87.757c-9.255-36.364-46.237-58.34-82.602-49.085c-24.116,6.138-42.947,24.969-49.085,49.085H17.067
			C7.641,392.534,0,400.175,0,409.6s7.641,17.067,17.067,17.067h224.29c9.255,36.364,46.237,58.34,82.602,49.085
			c24.116-6.138,42.947-24.969,49.085-49.085H460.8c9.426,0,17.067-7.641,17.067-17.067S470.226,392.534,460.8,392.534z
			 M307.2,443.734c-18.851,0-34.133-15.282-34.133-34.133s15.282-34.133,34.133-34.133c18.851,0,34.133,15.282,34.133,34.133
			S326.052,443.734,307.2,443.734z"/>
	</g>
</g>
</symbol>
<symbol id="icon-sort" viewBox="0 0 459 459">
<path d="M459,331.5H306v51h153V331.5z M0,76.5l0,51h459v-51H0z M459,204H153v51h306V204z"/>
</symbol>
<symbol id="icon-image" viewBox="0 -36 512 511">
<path d="m231.898438 198.617188c28.203124 0 51.152343-22.945313 51.152343-51.148438 0-28.207031-22.949219-51.152344-51.152343-51.152344-28.203126 0-51.148438 22.945313-51.148438 51.152344 0 28.203125 22.945312 51.148438 51.148438 51.148438zm0-72.300782c11.664062 0 21.152343 9.488282 21.152343 21.152344 0 11.660156-9.488281 21.148438-21.152343 21.148438-11.660157 0-21.148438-9.488282-21.148438-21.148438 0-11.664062 9.488281-21.152344 21.148438-21.152344zm0 0"/><path d="m493.304688.5h-474.609376c-10.308593 0-18.695312 8.386719-18.695312 18.695312v401.726563c0 10.308594 8.386719 18.695313 18.695312 18.695313h474.609376c10.308593 0 18.695312-8.386719 18.695312-18.695313v-401.726563c0-10.308593-8.386719-18.695312-18.695312-18.695312zm-11.304688 30v237.40625l-94.351562-94.355469c-6.152344-6.140625-16.15625-6.136719-22.304688.011719l-133.441406 133.441406-85.238282-85.234375c-2.980468-2.984375-6.945312-4.628906-11.164062-4.628906-4.214844 0-8.175781 1.640625-11.15625 4.621094l-94.34375 94.34375v-285.605469zm-452 379.117188v-51.085938l105.5-105.5 85.234375 85.234375c2.984375 2.984375 6.949219 4.632813 11.167969 4.632813 4.210937 0 8.175781-1.644532 11.152344-4.625l133.445312-133.445313 105.503906 105.503906v99.285157zm0 0"/>
</symbol>
<symbol id="icon-location" viewBox="0 0 24 24">
<g><path d="M12 14.315c-2.088 0-3.787-1.698-3.787-3.786S9.913 6.74 12 6.74s3.787 1.7 3.787 3.787-1.7 3.785-3.787 3.785zm0-6.073c-1.26 0-2.287 1.026-2.287 2.287S10.74 12.814 12 12.814s2.287-1.025 2.287-2.286S13.26 8.24 12 8.24z"></path><path d="M20.692 10.69C20.692 5.9 16.792 2 12 2s-8.692 3.9-8.692 8.69c0 1.902.603 3.708 1.743 5.223l.003-.002.007.015c1.628 2.07 6.278 5.757 6.475 5.912.138.11.302.163.465.163.163 0 .327-.053.465-.162.197-.155 4.847-3.84 6.475-5.912l.007-.014.002.002c1.14-1.516 1.742-3.32 1.742-5.223zM12 20.29c-1.224-.99-4.52-3.715-5.756-5.285-.94-1.25-1.436-2.742-1.436-4.312C4.808 6.727 8.035 3.5 12 3.5s7.192 3.226 7.192 7.19c0 1.57-.497 3.062-1.436 4.313-1.236 1.57-4.532 4.294-5.756 5.285z"></path></g>
</symbol>
<symbol id="icon-loader-ring" viewBox="0 0 32 32">
<path d="M16,5.2c5.9,0,10.8,4.8,10.8,10.8S21.9,26.8,16,26.8S5.2,21.9,5.2,16H0c0,8.8,7.2,16,16,16s16-7.2,16-16S24.8,0,16,0V5.2z"/>
</symbol>
</defs>
</svg>
